<svg width="139" height="180" viewBox="0 0 139 180" fill="none" xmlns="http://www.w3.org/2000/svg">
<path d="M114.15 42.04C117.738 49.9342 118.433 59.7476 116.591 70.1268C113.986 84.8046 106.286 100.843 94.1566 114.817C82.0266 128.793 67.702 138.129 54.3106 141.895C44.8505 144.556 35.7527 144.456 28.2322 141.127L33.9977 146.949C41.0015 154.021 52.1543 155.271 64.7851 151.118C77.3656 146.982 91.1501 137.551 103.111 123.769C115.073 109.987 122.885 94.5361 125.88 80.7387C128.886 66.8906 126.996 55.011 120.01 47.9564L114.15 42.04ZM114.729 69.5274C117.264 55.2432 114.771 42.667 107.032 34.8518C99.2776 27.0223 87.4445 25.1636 74.3752 28.839C61.3377 32.5054 47.2745 41.6392 35.3222 55.41C23.3691 69.1817 15.8517 84.9125 13.3217 99.1684C10.7866 113.453 13.2797 126.029 21.0195 133.844C21.0221 133.847 21.0247 133.849 21.0273 133.852C28.7814 141.675 40.6109 143.531 53.6758 139.857C66.7133 136.19 80.7765 127.057 92.7288 113.286C104.682 99.5141 112.199 83.7833 114.729 69.5274Z" fill="#EAFA35" stroke="black" stroke-width="2"/>
<path d="M35.3152 55.4092C23.3621 69.1809 15.8447 84.9118 13.3147 99.1677C10.7796 113.452 13.2727 126.028 21.0125 133.843C28.7665 141.673 40.5995 143.532 53.6689 139.856C66.7063 136.19 80.7695 127.056 92.7218 113.285C104.675 99.5134 112.192 83.7826 114.722 69.5267C117.257 55.2425 114.764 42.6663 107.024 34.8511C99.2705 27.0216 87.4374 25.1628 74.3681 28.8382C61.3307 32.5046 47.2675 41.6384 35.3152 55.4092Z" fill="white" stroke="black" stroke-width="2"/>
<path d="M40.8674 60.2471C30.6604 72.007 24.0018 85.1877 21.4524 96.9484C18.8921 108.76 20.5194 118.837 26.4311 124.806C32.36 130.793 41.8283 131.88 52.6042 128.341C63.3299 124.818 75.0897 116.777 85.2959 105.018C95.5029 93.2584 102.162 80.0777 104.711 68.317C107.271 56.5057 105.644 46.4282 99.7322 40.4589C93.8033 34.4722 84.335 33.3851 73.5591 36.9244C62.8334 40.4473 51.0736 48.488 40.8674 60.2471Z" fill="#0F0F0F" stroke="black" stroke-width="2"/>
<mask id="path-4-inside-1_782_22222" fill="white">
<path d="M45.7824 65.1588C26.3801 87.5132 19.6578 114.729 30.7676 125.947C41.8775 137.165 66.6125 128.138 86.0148 105.783C105.417 83.4288 112.139 56.213 101.03 44.9948C89.9198 33.7767 65.1848 42.8044 45.7824 65.1588Z"/>
</mask>
<path d="M47.2102 66.6905C37.6549 77.6997 31.2916 89.8326 28.6649 100.467C26.0026 111.246 27.3085 119.758 31.9656 124.461L29.5697 127.433C23.1168 120.918 22.229 110.214 25.001 98.9913C27.8086 87.6245 34.5077 74.9722 44.3547 63.6271L47.2102 66.6905ZM31.9656 124.461C36.6623 129.203 44.7063 130.039 54.5307 126.454C64.2198 122.917 75.0332 115.259 84.587 104.251L87.4426 107.315C77.5941 118.662 66.3388 126.694 56.0323 130.456C45.8612 134.168 35.9828 133.909 29.5697 127.433L31.9656 124.461ZM84.587 104.251C94.1424 93.2423 100.506 81.1094 103.132 70.4751C105.795 59.6964 104.489 51.1836 99.8317 46.4811L102.228 43.5085C108.68 50.0242 109.568 60.7284 106.796 71.9507C103.989 83.3175 97.2895 95.9698 87.4426 107.315L84.587 104.251ZM99.8317 46.4811C95.1349 41.7386 87.091 40.9026 77.2665 44.4883C67.5775 48.0246 56.764 55.6831 47.2102 66.6905L44.3547 63.6271C54.2031 52.2802 65.4584 44.2476 75.7649 40.486C85.936 36.7737 95.8145 37.0329 102.228 43.5085L99.8317 46.4811Z" fill="black" mask="url(#path-4-inside-1_782_22222)"/>
<path fill-rule="evenodd" clip-rule="evenodd" d="M72.9411 86.7725L41.2123 129.648C38.8979 129.375 36.7638 128.715 34.8672 127.636C32.9779 126.563 31.4247 125.133 30.199 123.403L61.9135 80.5467L59.5072 94.4164L64.0793 91.6454L72.9411 86.7725ZM46.4858 129.641L76.6961 88.8179L74.5675 102.033L80.6166 99.1169L84.5526 74.6732L75.8611 79.4521L67.1695 84.2311L69.8394 66.332L45.9955 79.4424L45.4245 85.4717L58.1981 78.4478L28.049 119.188C24.0786 107.933 29.0722 89.4689 41.9895 72.0136C59.1328 48.8477 83.8287 36.1191 97.0374 43.6251C110.246 51.1311 107.058 76.0819 89.9148 99.2478C77.009 116.688 59.8274 128.21 46.4858 129.641Z" fill="#EAFA35"/>
</svg>
