<svg width="149" height="200" viewBox="0 0 149 200" fill="none" xmlns="http://www.w3.org/2000/svg">
<path d="M107.827 169.671C98.6942 177.02 85.54 176.959 71.4913 170.539C57.4806 164.137 42.7798 151.485 30.7486 134.077C18.7168 116.669 11.6751 97.8615 9.98541 81.5576C8.29159 65.2134 11.9837 51.6245 21.1012 44.2877L30.2182 36.9513C24.3137 45.6563 21.9007 57.4432 22.7461 70.4133C23.8616 87.5258 30.6458 106.878 42.7919 124.452C54.9385 142.026 70.1894 154.556 85.0596 160.585C96.3232 165.152 107.459 166.018 116.86 162.402L107.827 169.671ZM124.443 156.3C114.364 164.411 100.358 164.979 85.7324 159.048C71.1306 153.128 56.0668 140.779 44.0416 123.38C32.0159 105.981 25.348 86.8854 24.2545 70.1095C23.1596 53.3112 27.6506 39.0174 37.7175 30.9166C47.797 22.8057 61.8024 22.2378 76.4284 28.1681C91.0303 34.0887 106.094 46.4371 118.119 63.8359C130.145 81.2356 136.813 100.331 137.906 117.107C139.001 133.905 134.51 148.199 124.443 156.3Z" fill="#EAFA35" stroke="black" stroke-width="1.57318"/>
<path d="M118.123 63.8348C130.149 81.2345 136.817 100.33 137.91 117.106C139.005 133.904 134.514 148.198 124.447 156.299C114.368 164.41 100.362 164.977 85.7363 159.047C71.1345 153.127 56.0706 140.778 44.0455 123.379C32.0198 105.98 25.3519 86.8842 24.2584 70.1083C23.1635 53.31 27.6544 39.0163 37.7214 30.9154C47.8009 22.8045 61.8063 22.2366 76.4323 28.167C91.0341 34.0875 106.098 46.4359 118.123 63.8348Z" fill="white" stroke="black" stroke-width="1.57318"/>
<path d="M111.119 68.6756C121.389 83.5354 127.394 99.5862 128.832 113.494C130.273 127.442 127.113 138.995 119.372 145.224C111.616 151.466 100.422 151.435 88.4296 145.96C76.4754 140.501 63.9274 129.708 53.6577 114.849C43.3875 99.9892 37.3826 83.9384 35.9452 70.0307C34.5036 56.0829 37.6633 44.5295 45.4044 38.3002C53.1609 32.0586 64.355 32.0898 76.3471 37.565C88.3013 43.0231 100.849 53.8166 111.119 68.6756Z" fill="#0F0F0F" stroke="black" stroke-width="1.57318"/>
<mask id="path-4-inside-1_782_22208" fill="white">
<path d="M104.538 73.9319C124.012 102.109 128.268 134.23 114.044 145.676C99.8199 157.122 72.5017 143.559 53.0273 115.382C33.5529 87.2052 29.2968 55.0842 43.5211 43.638C57.7453 32.1918 85.0635 45.7548 104.538 73.9319Z"/>
</mask>
<path d="M103.288 75.003C112.926 88.9474 118.749 103.804 120.431 116.493C122.127 129.297 119.567 139.314 113.236 144.409L114.852 146.943C122.745 140.592 125.17 128.826 123.425 115.664C121.666 102.386 115.624 87.0934 105.788 72.8607L103.288 75.003ZM113.236 144.409C106.87 149.532 97.1762 149.308 86.2649 143.89C75.4549 138.523 63.9135 128.254 54.277 114.311L51.7775 116.453C61.6154 130.688 73.4704 141.288 84.7441 146.886C95.9165 152.432 106.994 153.267 114.852 146.943L113.236 144.409ZM54.277 114.311C44.6394 100.367 38.8159 85.5102 37.1346 72.8215C35.4381 60.0174 37.998 49.9997 44.3289 44.9052L42.7132 42.3707C34.8199 48.7225 32.3957 60.4885 34.1397 73.6507C35.899 86.9283 41.9407 102.221 51.7775 116.453L54.277 114.311ZM44.3289 44.9052C50.6952 39.7823 60.3889 40.0064 71.3003 45.4237C82.1103 50.7907 93.6517 61.0602 103.288 75.003L105.788 72.8607C95.9497 58.6265 84.0948 48.0259 72.821 42.4287C61.6487 36.8817 50.5712 36.0474 42.7132 42.3707L44.3289 44.9052Z" fill="black" mask="url(#path-4-inside-1_782_22208)"/>
<path fill-rule="evenodd" clip-rule="evenodd" d="M70.5003 95.2371L101.538 148.572C104.237 148.558 106.779 148.075 109.1 147.082C111.412 146.094 113.383 144.652 115.015 142.824L83.9912 89.5131L84.9865 105.751L80.078 101.978L70.5003 95.2371ZM95.4688 147.883L65.9162 97.1007L66.6755 112.551L60.0854 108.421L58.6821 79.8429L68.0757 86.4538L77.4694 93.0647L76.6862 72.1659L102.456 90.302L102.342 97.2993L88.5367 87.5829L118.029 138.262C124.04 125.85 120.654 104.002 108.018 82.2891C91.2481 53.4721 64.4485 35.6643 48.2831 42.5767C32.1179 49.489 32.5951 78.5523 49.3652 107.369C61.99 129.063 80.294 144.515 95.4688 147.883Z" fill="#EAFA35"/>
</svg>
