<svg width="75" height="75" viewBox="0 0 75 75" fill="none" xmlns="http://www.w3.org/2000/svg">
<path fill-rule="evenodd" clip-rule="evenodd" d="M48.3333 34.4444C48.3333 42.2222 42.2222 48.3333 34.4444 48.3333C26.6667 48.3333 20.5556 42.2222 20.5556 34.4444C20.5556 26.6667 26.6667 20.5556 34.4444 20.5556C42.2222 20.5556 48.3333 26.6667 48.3333 34.4444ZM46.1111 50C42.7778 52.5 38.8889 53.8889 34.4444 53.8889C23.6111 53.8889 15 45.2778 15 34.4444C15 23.6111 23.6111 15 34.4444 15C45.2778 15 53.8889 23.6111 53.8889 34.4444C53.8889 38.8889 52.5 42.7778 50 46.1111L58.0556 54.1667C59.1294 55.2405 59.1294 56.9817 58.0556 58.0556C56.9817 59.1294 55.2405 59.1294 54.1667 58.0556L46.1111 50Z" fill="#0F0F0F"/>
</svg>
