<svg width="18" height="15" viewBox="0 0 18 15" fill="none" xmlns="http://www.w3.org/2000/svg">
<path d="M17.2272 1.91326C16.5934 2.19464 15.9122 2.38414 15.1973 2.46956C15.9273 2.03242 16.4879 1.33974 16.7513 0.514268C16.0687 0.919108 15.3121 1.21341 14.5068 1.37204C13.8629 0.685105 12.9434 0.255859 11.927 0.255859C9.6451 0.255859 7.96831 2.38486 8.4837 4.59497C5.54717 4.44782 2.94299 3.04093 1.19945 0.902598C0.273482 2.49109 0.719237 4.56913 2.29266 5.62142C1.71411 5.60276 1.16858 5.44413 0.692678 5.17926C0.653917 6.81656 1.82752 8.34835 3.52728 8.68931C3.02984 8.82425 2.48503 8.85584 1.93089 8.7496C2.38023 10.1536 3.68519 11.1751 5.23277 11.2038C3.74692 12.3688 1.8749 12.8892 0 12.6681C1.56409 13.6709 3.42248 14.2559 5.41796 14.2559C11.9801 14.2559 15.6875 8.71371 15.4636 3.74294C16.1541 3.24407 16.7535 2.62173 17.2272 1.91326Z" fill="white"/>
</svg>
